<svg xmlns="http://www.w3.org/2000/svg" width="1em" height="1em" viewBox="0 0 48 48" fill="none">
  <path d="M19 4C19 2.89543 19.8954 2 21 2H27C28.1046 2 29 2.89543 29 4C29 5.10457 28.1046 6 27 6H21C19.8954 6 19 5.10457 19 4Z" fill="currentColor"></path>
  <path d="M21.5 21C21.5 19.8954 20.6046 19 19.5 19C18.3954 19 17.5 19.8954 17.5 21V33C17.5 34.1046 18.3954 35 19.5 35C20.6046 35 21.5 34.1046 21.5 33V21Z" fill="currentColor"></path>
  <path d="M30.5 21C30.5 19.8954 29.6046 19 28.5 19C27.3954 19 26.5 19.8954 26.5 21V33C26.5 34.1046 27.3954 35 28.5 35C29.6046 35 30.5 34.1046 30.5 33V21Z" fill="currentColor"></path>
  <path d="M5 9C3.89543 9 3 9.89543 3 11C3 12.1046 3.89543 13 5 13H7.5L7.5 34.4826C7.49998 36.0925 7.49995 37.4213 7.58839 38.5037C7.68024 39.6278 7.87737 40.6613 8.37195 41.6319C9.13894 43.1372 10.3628 44.3611 11.8681 45.1281C12.8387 45.6226 13.8722 45.8198 14.9963 45.9116C16.0787 46 17.4074 46 19.0174 46H28.9827C30.5926 46 31.9213 46 33.0037 45.9116C34.1278 45.8198 35.1613 45.6226 36.1319 45.1281C37.6372 44.3611 38.8611 43.1372 39.6281 41.6319C40.1226 40.6613 40.3198 39.6278 40.4116 38.5037C40.5 37.4212 40.5 36.0925 40.5 34.4826V13H43C44.1046 13 45 12.1046 45 11C45 9.89543 44.1046 9 43 9H5ZM36.5 13V34.4C36.5 36.1132 36.4984 37.2777 36.4249 38.1779C36.3533 39.0548 36.2234 39.5032 36.064 39.816C35.6805 40.5686 35.0686 41.1805 34.316 41.564C34.0032 41.7234 33.5548 41.8533 32.6779 41.9249C31.7777 41.9984 30.6132 42 28.9 42H19.1C17.3868 42 16.2223 41.9984 15.3221 41.9249C14.4452 41.8533 13.9968 41.7234 13.684 41.564C12.9314 41.1805 12.3195 40.5686 11.936 39.816C11.7766 39.5032 11.6467 39.0548 11.5751 38.1779C11.5016 37.2777 11.5 36.1132 11.5 34.4V13H36.5Z" fill="currentColor"></path>
</svg>
